<svg id="Group_7" data-name="Group 7" xmlns="http://www.w3.org/2000/svg" xmlns:xlink="http://www.w3.org/1999/xlink" width="202.805" height="46.5" viewBox="0 0 202.805 46.5">
  <defs>
    <linearGradient id="linear-gradient" x1="0.359" y1="1.283" x2="0.718" y2="0.217" gradientUnits="objectBoundingBox">
      <stop offset="0" stop-color="#fcfdfe"/>
      <stop offset="0.317" stop-color="#eee"/>
      <stop offset="0.4" stop-color="#efefef"/>
      <stop offset="1" stop-color="#fbfbfb"/>
    </linearGradient>
    <linearGradient id="linear-gradient-2" x1="0.283" y1="0.874" x2="0.717" y2="0.126" xlink:href="#linear-gradient"/>
  </defs>
  <g id="Group_3" data-name="Group 3">
    <g id="Group_2" data-name="Group 2">
      <g id="Group_1" data-name="Group 1">
        <path id="Path_1" data-name="Path 1" d="M69.182,63.658l7.692-7.7L84.512,63.6l-1.178,1.182-6.461-6.456-6.514,6.514Z" transform="translate(-54.857 -36.202)" fill="url(#linear-gradient)"/>
        <path id="Path_2" data-name="Path 2" d="M67.707,75.941,89.728,53.92l22.021,22.021L89.728,97.962Zm2.351,0L89.728,95.6l19.661-19.661L89.728,56.271Z" transform="translate(-67.707 -53.92)" fill="url(#linear-gradient-2)"/>
      </g>
    </g>
  </g>
  <g id="Group_6" data-name="Group 6" transform="translate(49.375 8.247)">
    <g id="Group_4" data-name="Group 4" transform="translate(0 26.373)">
      <path id="Path_3" data-name="Path 3" d="M77.006,57.484a3.981,3.981,0,0,1,2.827,1.088.141.141,0,0,1,.01.2l-.185.2c-.068.068-.126.058-.194-.019a3.687,3.687,0,1,0,0,5.411.138.138,0,0,1,.185-.019l.194.194a.13.13,0,0,1,0,.194,4.027,4.027,0,0,1-2.836,1.137,4.2,4.2,0,1,1,0-8.393Z" transform="translate(-72.79 -57.484)" fill="#f0f0f0"/>
      <path id="Path_4" data-name="Path 4" d="M75.837,59.612a3.724,3.724,0,0,1,1.175.214c0-1.03-.107-1.535-1.03-1.535a3.4,3.4,0,0,0-1.4.311.127.127,0,0,1-.175-.1l-.058-.136c-.029-.107.019-.155.078-.175a3.358,3.358,0,0,1,1.593-.35c1.418,0,1.477.845,1.477,2.04v2.584a.152.152,0,0,1-.146.155h-.146c-.078,0-.117-.049-.136-.126l-.049-.427a2.426,2.426,0,0,1-1.622.67,1.471,1.471,0,0,1-1.525-1.554C73.875,60.292,74.613,59.612,75.837,59.612Zm-.379,2.671a2.141,2.141,0,0,0,1.554-.729V60.272a3.113,3.113,0,0,0-1.175-.243c-.894,0-1.486.457-1.486,1.146A1.055,1.055,0,0,0,75.458,62.283Z" transform="translate(-63.336 -54.347)" fill="#f0f0f0"/>
      <path id="Path_5" data-name="Path 5" d="M74.669,58.116a.152.152,0,0,1,.146-.155h.146a.137.137,0,0,1,.136.126l.049.476a1.81,1.81,0,0,1,1.457-.719,2.107,2.107,0,0,1,.719.136c.107.039.165.117.126.214l-.087.233a.131.131,0,0,1-.185.058,1.589,1.589,0,0,0-.612-.136,1.623,1.623,0,0,0-1.379.8v3.322a.139.139,0,0,1-.155.155H74.8c-.078,0-.126-.068-.126-.155Z" transform="translate(-56.417 -54.347)" fill="#f0f0f0"/>
      <path id="Path_6" data-name="Path 6" d="M75.286,57.947a.394.394,0,1,1,.787,0,.393.393,0,0,1-.787,0Zm.136,2.827a.153.153,0,0,1,.155-.155h.2a.16.16,0,0,1,.155.155v4.352a.139.139,0,0,1-.155.155h-.233c-.078,0-.126-.068-.126-.155Z" transform="translate(-51.04 -57.005)" fill="#f0f0f0"/>
      <path id="Path_7" data-name="Path 7" d="M75.777,58.116a.156.156,0,0,1,.165-.155h.117a.129.129,0,0,1,.136.117l.049.5a2.545,2.545,0,0,1,1.719-.728c1.311,0,1.884.826,1.884,2.127v2.5a.16.16,0,0,1-.155.155h-.214a.152.152,0,0,1-.146-.155v-2.5c0-1.069-.505-1.622-1.389-1.622a2.364,2.364,0,0,0-1.661.8v3.322a.139.139,0,0,1-.155.155H75.9c-.078,0-.126-.068-.126-.155Z" transform="translate(-46.762 -54.347)" fill="#f0f0f0"/>
      <path id="Path_8" data-name="Path 8" d="M77.332,60.982a2.068,2.068,0,0,1-.359-1.166,1.9,1.9,0,0,1,2.04-1.972h1.9a.148.148,0,0,1,.155.155v.126a.135.135,0,0,1-.107.136l-.835.058a1.585,1.585,0,0,1,.719,1.5,1.878,1.878,0,0,1-1.933,1.933,1.822,1.822,0,0,1-1.272-.418.943.943,0,0,0-.593.835c0,.544.466.68.923.68h1.69c1,0,1.719.447,1.719,1.486a2.141,2.141,0,0,1-2.37,1.894c-1.593,0-2.273-.933-2.273-1.719a1.441,1.441,0,0,1,.728-1.224,1.159,1.159,0,0,1-.9-1.059A1.474,1.474,0,0,1,77.332,60.982Zm1.661,4.769c1.059,0,1.855-.612,1.855-1.408,0-.534-.33-1.03-1.185-1.03H78.2a1.278,1.278,0,0,0-.942,1.137C77.255,65.09,77.867,65.751,78.993,65.751Zm1.37-5.945a1.387,1.387,0,0,0-1.438-1.5,1.428,1.428,0,0,0-1.477,1.5,1.457,1.457,0,1,0,2.914,0Z" transform="translate(-39.895 -54.347)" fill="#f0f0f0"/>
      <path id="Path_9" data-name="Path 9" d="M77.9,57.947a.4.4,0,0,1,.389-.408.408.408,0,0,1,.4.408.392.392,0,0,1-.4.389A.384.384,0,0,1,77.9,57.947Zm.136,2.827a.152.152,0,0,1,.146-.155H78.4a.16.16,0,0,1,.156.155v4.352a.139.139,0,0,1-.156.155h-.233c-.078,0-.126-.068-.126-.155Z" transform="translate(-28.262 -57.005)" fill="#f0f0f0"/>
      <path id="Path_10" data-name="Path 10" d="M78.408,62.05l.117-.185a.131.131,0,0,1,.2-.019,2.034,2.034,0,0,0,1.243.457c.67,0,1.117-.369,1.117-.826,0-.534-.525-.758-1.3-1.049-.826-.291-1.428-.651-1.428-1.37,0-.515.447-1.214,1.525-1.214a2.514,2.514,0,0,1,1.311.369.167.167,0,0,1,.049.223l-.068.126a.154.154,0,0,1-.223.058,2.252,2.252,0,0,0-1.068-.321c-.738,0-1,.427-1,.738,0,.476.418.69,1.107.933.865.33,1.642.622,1.642,1.477a1.519,1.519,0,0,1-1.661,1.292,2.42,2.42,0,0,1-1.525-.525A.135.135,0,0,1,78.408,62.05Z" transform="translate(-24.263 -54.347)" fill="#f0f0f0"/>
      <path id="Path_11" data-name="Path 11" d="M79.566,57.947a.394.394,0,1,1,.787,0,.393.393,0,0,1-.787,0Zm.136,2.827a.153.153,0,0,1,.155-.155h.2a.16.16,0,0,1,.155.155v4.352a.139.139,0,0,1-.155.155h-.233c-.078,0-.126-.068-.126-.155Z" transform="translate(-13.745 -57.005)" fill="#f0f0f0"/>
      <path id="Path_12" data-name="Path 12" d="M80.057,58.116a.156.156,0,0,1,.165-.155h.117a.129.129,0,0,1,.136.117l.049.5a2.544,2.544,0,0,1,1.719-.728c1.311,0,1.885.826,1.885,2.127v2.5a.16.16,0,0,1-.155.155h-.214a.152.152,0,0,1-.146-.155v-2.5c0-1.069-.505-1.622-1.389-1.622a2.364,2.364,0,0,0-1.661.8v3.322a.139.139,0,0,1-.155.155h-.223c-.078,0-.126-.068-.126-.155Z" transform="translate(-9.467 -54.347)" fill="#f0f0f0"/>
      <path id="Path_13" data-name="Path 13" d="M83.692,57.844a2.451,2.451,0,1,1-2.331,2.428A2.395,2.395,0,0,1,83.692,57.844Zm0,4.41a1.967,1.967,0,1,0-1.836-1.982A1.889,1.889,0,0,0,83.692,62.254Z" transform="translate(1.896 -54.347)" fill="#f0f0f0"/>
      <path id="Path_14" data-name="Path 14" d="M82.225,58.011a.16.16,0,0,1,.155-.155h.214a.152.152,0,0,1,.146.155v2.5c0,1.088.505,1.632,1.389,1.632a1.931,1.931,0,0,0,1.535-.816V58.011a.143.143,0,0,1,.155-.155h.2a.153.153,0,0,1,.155.155v4.352a.153.153,0,0,1-.155.155h-.136c-.087,0-.126-.068-.136-.146l-.049-.457a2.118,2.118,0,0,1-1.612.719c-1.3,0-1.865-.806-1.865-2.127Z" transform="translate(9.425 -54.242)" fill="#f0f0f0"/>
      <path id="Path_15" data-name="Path 15" d="M83.058,58.116a.152.152,0,0,1,.146-.155h.146a.137.137,0,0,1,.136.126l.049.476a1.81,1.81,0,0,1,1.457-.719,2.107,2.107,0,0,1,.719.136c.107.039.165.117.126.214l-.087.233c-.039.078-.107.087-.194.058a1.574,1.574,0,0,0-.6-.136,1.646,1.646,0,0,0-1.389.8v3.322c0,.1-.039.155-.146.155h-.233c-.078,0-.126-.068-.126-.155Z" transform="translate(16.683 -54.347)" fill="#f0f0f0"/>
      <path id="Path_16" data-name="Path 16" d="M84.191,58.116a.156.156,0,0,1,.165-.155h.117a.129.129,0,0,1,.136.117l.049.5a2.551,2.551,0,0,1,1.729-.728c1.3,0,1.875.826,1.875,2.127v2.5a.153.153,0,0,1-.155.155h-.2a.153.153,0,0,1-.155-.155v-2.5c0-1.069-.505-1.622-1.389-1.622a2.391,2.391,0,0,0-1.661.8v3.322a.139.139,0,0,1-.155.155h-.223c-.078,0-.126-.068-.126-.155Z" transform="translate(26.556 -54.347)" fill="#f0f0f0"/>
      <path id="Path_17" data-name="Path 17" d="M86.952,59.612a3.725,3.725,0,0,1,1.175.214c0-1.03-.107-1.535-1.03-1.535a3.4,3.4,0,0,0-1.4.311.116.116,0,0,1-.165-.1l-.058-.136c-.039-.107.01-.155.068-.175a3.358,3.358,0,0,1,1.593-.35c1.418,0,1.477.845,1.477,2.04v2.584a.152.152,0,0,1-.146.155h-.146c-.078,0-.117-.049-.136-.126l-.049-.427a2.426,2.426,0,0,1-1.622.67,1.477,1.477,0,0,1-1.525-1.554C84.99,60.292,85.728,59.612,86.952,59.612Zm-.379,2.671a2.141,2.141,0,0,0,1.554-.729V60.272a3.114,3.114,0,0,0-1.175-.243c-.894,0-1.476.457-1.476,1.146A1.048,1.048,0,0,0,86.573,62.283Z" transform="translate(33.518 -54.347)" fill="#f0f0f0"/>
      <path id="Path_18" data-name="Path 18" d="M86.423,59.593h-.544c-.117,0-.146-.058-.146-.155v-.185c0-.078.058-.117.146-.117h.544V57.864a.146.146,0,0,1,.155-.146l.194-.01a.152.152,0,0,1,.156.146v1.282H88.55a.146.146,0,0,1,.146.155v.146a.14.14,0,0,1-.146.155H86.928v2.972c0,.544.058.845.6.845a2.543,2.543,0,0,0,1.059-.311c.107-.058.155-.019.185.039l.087.146a.132.132,0,0,1-.039.194,2.249,2.249,0,0,1-1.35.437c-.962,0-1.049-.573-1.049-1.321Z" transform="translate(39.993 -55.523)" fill="#f0f0f0"/>
      <path id="Path_19" data-name="Path 19" d="M86.414,58.011a.153.153,0,0,1,.155-.155h.2a.16.16,0,0,1,.156.155v2.5c0,1.088.5,1.632,1.379,1.632a1.957,1.957,0,0,0,1.544-.816V58.011A.14.14,0,0,1,90,57.856h.214a.152.152,0,0,1,.146.155v4.352a.152.152,0,0,1-.146.155h-.146c-.087,0-.126-.068-.136-.146l-.049-.457a2.091,2.091,0,0,1-1.6.719c-1.311,0-1.865-.806-1.865-2.127Z" transform="translate(45.927 -54.242)" fill="#f0f0f0"/>
      <path id="Path_20" data-name="Path 20" d="M87.246,58.116a.153.153,0,0,1,.155-.155h.136a.137.137,0,0,1,.136.126l.049.476a1.81,1.81,0,0,1,1.457-.719,2.049,2.049,0,0,1,.719.136c.107.039.165.117.136.214l-.1.233a.131.131,0,0,1-.185.058,1.587,1.587,0,0,0-.612-.136,1.623,1.623,0,0,0-1.379.8v3.322a.139.139,0,0,1-.156.155h-.233c-.078,0-.126-.068-.126-.155Z" transform="translate(53.177 -54.347)" fill="#f0f0f0"/>
      <path id="Path_21" data-name="Path 21" d="M90.131,57.844a2.046,2.046,0,0,1,2.108,2.127c0,.185,0,.457-.165.457h-3.72a1.845,1.845,0,0,0,1.817,1.846,2.474,2.474,0,0,0,1.37-.437c.107-.068.155-.078.214,0L91.87,62c.039.049.019.117-.049.185a2.8,2.8,0,0,1-1.69.554,2.453,2.453,0,0,1,0-4.9Zm1.6,2.166a1.57,1.57,0,0,0-1.6-1.7,1.736,1.736,0,0,0-1.768,1.7Z" transform="translate(58.344 -54.347)" fill="#f0f0f0"/>
    </g>
    <g id="Group_5" data-name="Group 5" transform="translate(1.02)">
      <path id="Path_22" data-name="Path 22" d="M82.6,77.587H80.472l-4.245-12.22.282-.4h3.614v-8.4H74.915V77.587h-2.02V54.769H80.53a1.563,1.563,0,0,1,1.622,1.622v8.655c0,1.1-.738,1.651-2.215,1.651-.156,0-.369-.01-.651-.019s-.486-.029-.612-.029Q80.656,72.113,82.6,77.587Z" transform="translate(-72.895 -54.769)" fill="#f0f0f0"/>
      <path id="Path_23" data-name="Path 23" d="M82.11,68.189a1.452,1.452,0,0,1-1.632,1.651H75.805a1.449,1.449,0,0,1-1.622-1.651V57.3a1.442,1.442,0,0,1,1.622-1.642h4.672A1.445,1.445,0,0,1,82.11,57.3v5.109l-.661.68H76.058v5.139h4.167v-2.6H82.11Zm-1.885-6.644V57.28H76.058v4.264Z" transform="translate(-61.672 -47.022)" fill="#f0f0f0"/>
      <path id="Path_24" data-name="Path 24" d="M83.413,69.84h-1.9v-.389c-.767.107-1.535.2-2.312.3a19.571,19.571,0,0,1-2.283.175,1.4,1.4,0,0,1-1.593-1.574V63.176a1.452,1.452,0,0,1,1.651-1.632h4.566V57.28H77.361v2.409H75.486V57.3a1.445,1.445,0,0,1,1.632-1.642h4.663A1.445,1.445,0,0,1,83.413,57.3Zm-1.875-1.768V63.06H77.205v5.109Z" transform="translate(-51.755 -47.022)" fill="#f0f0f0"/>
      <path id="Path_25" data-name="Path 25" d="M78.4,77.587h-1.9V54.769h1.9Z" transform="translate(-41.534 -54.769)" fill="#f0f0f0"/>
      <path id="Path_26" data-name="Path 26" d="M85.154,77.587h-7.5V54.769h7.4v1.8H79.685v8.519h4.9V66.9h-4.9v8.9h5.469Z" transform="translate(-31.417 -54.769)" fill="#f0f0f0"/>
      <path id="Path_27" data-name="Path 27" d="M86.46,68.189a1.462,1.462,0,0,1-1.651,1.651H80.36a1.455,1.455,0,0,1-1.642-1.651V64.974h1.9v3.2h3.924V65.333l-5.071-4.148a1.85,1.85,0,0,1-.728-1.515V57.3a1.448,1.448,0,0,1,1.642-1.642h4.391A1.455,1.455,0,0,1,86.431,57.3v2.836H84.546v-2.8H80.622v2.467l5.119,4.158a1.873,1.873,0,0,1,.719,1.545Z" transform="translate(-22.154 -47.022)" fill="#f0f0f0"/>
      <path id="Path_28" data-name="Path 28" d="M85.829,73.8H83.071a1.452,1.452,0,0,1-1.632-1.651V61.323h-1.71v-1.7h1.71V55.2h1.9v4.42h2.487v1.7H83.343V72.1h2.487Z" transform="translate(-13.345 -50.987)" fill="#f0f0f0"/>
      <path id="Path_29" data-name="Path 29" d="M88.7,69.84H86.782v-.389c-.767.107-1.535.2-2.3.3a19.72,19.72,0,0,1-2.283.175A1.4,1.4,0,0,1,80.6,68.354V63.176a1.452,1.452,0,0,1,1.651-1.632h4.556V57.28H82.644v2.409H80.759V57.3A1.448,1.448,0,0,1,82.4,55.658h4.663A1.445,1.445,0,0,1,88.7,57.3Zm-1.885-1.768V63.06H82.489v5.109Z" transform="translate(-5.72 -47.022)" fill="#f0f0f0"/>
      <path id="Path_30" data-name="Path 30" d="M87.762,73.8H85a1.452,1.452,0,0,1-1.632-1.651V61.323h-1.71v-1.7h1.71V55.2h1.9v4.42h2.487v1.7H85.275V72.1h2.487Z" transform="translate(3.499 -50.987)" fill="#f0f0f0"/>
      <path id="Path_31" data-name="Path 31" d="M90.471,68.189A1.452,1.452,0,0,1,88.84,69.84H84.177a1.452,1.452,0,0,1-1.632-1.651V57.3a1.445,1.445,0,0,1,1.632-1.642H88.84A1.445,1.445,0,0,1,90.471,57.3v5.109l-.651.68h-5.4v5.139H88.6v-2.6h1.875ZM88.6,61.545V57.28H84.42v4.264Z" transform="translate(11.193 -47.022)" fill="#f0f0f0"/>
      <path id="Path_32" data-name="Path 32" d="M93.458,75.974a1.552,1.552,0,0,1-.466,1.166,1.635,1.635,0,0,1-1.185.447H85.939a1.559,1.559,0,0,1-1.166-.447,1.581,1.581,0,0,1-.457-1.166V56.391a1.563,1.563,0,0,1,1.622-1.622h5.867a1.642,1.642,0,0,1,1.185.457,1.551,1.551,0,0,1,.466,1.166v5.3h-2.04V56.566h-5.08V75.8h5.08V70.185h2.04Z" transform="translate(26.634 -54.769)" fill="#f0f0f0"/>
      <path id="Path_33" data-name="Path 33" d="M93.683,69.84h-1.9v-.389c-.767.107-1.535.2-2.3.3a19.863,19.863,0,0,1-2.292.175,1.4,1.4,0,0,1-1.593-1.574V63.176a1.452,1.452,0,0,1,1.651-1.632h4.566V57.28H87.631v2.409H85.756V57.3a1.445,1.445,0,0,1,1.632-1.642h4.663A1.446,1.446,0,0,1,93.683,57.3Zm-1.875-1.768V63.06H87.475v5.109Z" transform="translate(37.735 -47.022)" fill="#f0f0f0"/>
      <path id="Path_34" data-name="Path 34" d="M94.172,60.4h-1.9V57.475l-3.575.107V69.919H86.751V55.736h1.943v.4c.641-.107,1.282-.2,1.933-.311a13.678,13.678,0,0,1,1.943-.175,1.41,1.41,0,0,1,1.6,1.593Z" transform="translate(47.843 -47.101)" fill="#f0f0f0"/>
      <path id="Path_35" data-name="Path 35" d="M95.7,68.189a1.452,1.452,0,0,1-1.632,1.651H89.4a1.452,1.452,0,0,1-1.632-1.651V57.3A1.445,1.445,0,0,1,89.4,55.658h4.663A1.446,1.446,0,0,1,95.7,57.3v5.109l-.651.68H89.653v5.139h4.167v-2.6H95.7Zm-1.875-6.644V57.28H89.653v4.264Z" transform="translate(56.714 -47.022)" fill="#f0f0f0"/>
    </g>
  </g>
</svg>
